<?xml version="1.0" encoding="UTF-8" standalone="no"?>
<!-- Generator: Adobe Illustrator 23.0.6, SVG Export Plug-In . SVG Version: 6.00 Build 0)  -->

<svg
   xmlns:dc="http://purl.org/dc/elements/1.1/"
   xmlns:cc="http://creativecommons.org/ns#"
   xmlns:rdf="http://www.w3.org/1999/02/22-rdf-syntax-ns#"
   xmlns:svg="http://www.w3.org/2000/svg"
   xmlns="http://www.w3.org/2000/svg"
   xmlns:sodipodi="http://sodipodi.sourceforge.net/DTD/sodipodi-0.dtd"
   xmlns:inkscape="http://www.inkscape.org/namespaces/inkscape"
   version="1.1"
   id="Ebene_1"
   x="0px"
   y="0px"
   width="102.8866"
   height="102.78666"
   viewBox="0 0 102.8866 102.78666"
   xml:space="preserve"
   sodipodi:docname="logo-label-prix-garantie-208x113.svg"
   inkscape:version="0.92.4 5da689c313, 2019-01-14"><metadata
   id="metadata3851"><rdf:RDF><cc:Work
       rdf:about=""><dc:format>image/svg+xml</dc:format><dc:type
         rdf:resource="http://purl.org/dc/dcmitype/StillImage" /><dc:title></dc:title></cc:Work></rdf:RDF></metadata><defs
   id="defs3849" /><sodipodi:namedview
   pagecolor="#ffffff"
   bordercolor="#666666"
   borderopacity="1"
   objecttolerance="10"
   gridtolerance="10"
   guidetolerance="10"
   inkscape:pageopacity="0"
   inkscape:pageshadow="2"
   inkscape:window-width="1342"
   inkscape:window-height="1064"
   id="namedview3847"
   showgrid="false"
   fit-margin-top="0"
   fit-margin-left="0"
   fit-margin-right="0"
   fit-margin-bottom="0"
   inkscape:zoom="4.3269231"
   inkscape:cx="51.492305"
   inkscape:cy="51.392305"
   inkscape:window-x="0"
   inkscape:window-y="14"
   inkscape:window-maximized="0"
   inkscape:current-layer="Ebene_1" />
<style
   type="text/css"
   id="style3802">
	.st0{fill:#E5007E;}
	.st1{fill:#FFFFFF;}
</style>
<g
   id="g3832"
   transform="translate(-52.507695,-5.1056446)">
	<path
   class="st0"
   d="M 154.9,63.5 C 151,91.6 125.1,111.3 96.9,107.4 68.8,103.5 49.1,77.6 53,49.4 57,21.3 82.9,1.7 111,5.6 c 28.2,3.9 47.8,29.8 43.9,57.9"
   id="path3804"
   inkscape:connector-curvature="0"
   style="fill:#e5007e" />
	<path
   class="st1"
   d="m 72.1,64.7 c 2.1,0 3.4,0.6 4.6,1.5 l -1,1.9 c -1,-0.6 -1.9,-1 -3.6,-1 -1.4,0 -2.3,0.9 -2.3,2.4 v 5 c 0,1.6 0.8,2.4 2.1,2.4 1,0 1.9,-0.5 2.4,-1.2 V 73.6 H 71.7 V 71.4 H 77 v 7.8 h -2 l -0.4,-1.3 c -0.8,0.8 -2,1.4 -3.3,1.4 -2.7,0 -4.2,-1.7 -4.2,-4.5 v -5.5 c 0.1,-2.9 2.2,-4.6 5,-4.6"
   id="path3806"
   inkscape:connector-curvature="0"
   style="fill:#ffffff" />
	<path
   class="st1"
   d="m 85.6,77.9 c -0.7,0.7 -1.8,1.2 -3,1.2 -2.3,0 -3.4,-1.6 -3.4,-4.2 v -2.5 c 0,-2.6 1.5,-4 3.8,-4 0.9,0 1.8,0.2 2.6,0.7 l 0.3,-0.5 h 1.8 v 7.8 c 0,0.8 0.5,0.8 1.1,0.6 v 2 C 87,79.3 86,78.9 85.6,77.9 m -2.2,-7.4 c -1,0 -1.6,0.7 -1.6,2 v 2.1 c 0,1.5 0.4,2.2 1.5,2.2 0.8,0 1.6,-0.5 2,-1.2 V 71 c -0.6,-0.3 -1.2,-0.5 -1.9,-0.5 z"
   id="path3808"
   inkscape:connector-curvature="0"
   style="fill:#ffffff" />
	<path
   class="st1"
   d="m 93,68.5 0.2,1.2 c 0.7,-0.7 1.9,-1.4 2.9,-1.4 l 0.2,2.3 c -1.2,0 -2.3,0.5 -3,1.2 v 7 H 90.8 V 68.5 H 93"
   id="path3810"
   inkscape:connector-curvature="0"
   style="fill:#ffffff" />
	<path
   class="st1"
   d="m 103.8,77.9 c -0.7,0.7 -1.8,1.2 -3,1.2 -2.3,0 -3.4,-1.6 -3.4,-4.2 v -2.5 c 0,-2.6 1.5,-4 3.8,-4 0.9,0 1.8,0.2 2.6,0.7 l 0.3,-0.5 h 1.8 v 7.8 c 0,0.8 0.5,0.8 1.1,0.6 v 2 c -1.8,0.3 -2.8,-0.1 -3.2,-1.1 m -2.2,-7.4 c -1,0 -1.6,0.7 -1.6,2 v 2.1 c 0,1.5 0.4,2.2 1.5,2.2 0.8,0 1.6,-0.5 2,-1.2 V 71 c -0.6,-0.3 -1.2,-0.5 -1.9,-0.5 z"
   id="path3812"
   inkscape:connector-curvature="0"
   style="fill:#ffffff" />
	<path
   class="st1"
   d="m 114.9,77.2 v -4.8 c 0,-1.2 -0.4,-1.8 -1.5,-1.8 -0.7,0 -1.5,0.5 -1.9,1.1 v 7.2 H 109 V 68.5 h 2.2 l 0.2,1 c 0.6,-0.7 1.7,-1.2 2.7,-1.2 2.4,0 3.3,1.4 3.3,3.8 v 4.3 c 0,0.5 0.2,0.6 0.6,0.6 0.2,0 0.3,0 0.5,-0.1 v 2 c -0.6,0.1 -1.1,0.2 -1.6,0.2 -1.2,0 -2,-0.5 -2,-1.9"
   id="path3814"
   inkscape:connector-curvature="0"
   style="fill:#ffffff" />
	<path
   class="st1"
   d="m 125.8,78.8 c -0.6,0.2 -1.5,0.3 -2,0.3 -2.6,0 -3.4,-1.1 -3.4,-3.7 v -4.9 h -1 v -2 h 1.1 l 0.5,-2 h 2 v 2 h 2.7 v 2 H 123 v 4.6 c 0,1.3 0.3,1.7 1.3,1.7 0.4,0 0.9,-0.1 1.2,-0.1 l 0.3,2.1"
   id="path3816"
   inkscape:connector-curvature="0"
   style="fill:#ffffff" />
	<path
   class="st1"
   d="m 128.9,67.1 c -0.9,0 -1.6,-0.5 -1.6,-1.4 0,-1 0.7,-1.5 1.6,-1.5 0.9,0 1.6,0.5 1.6,1.5 0,0.9 -0.7,1.4 -1.6,1.4 m 1.3,1.4 v 10.3 h -2.5 V 68.5 Z"
   id="path3818"
   inkscape:connector-curvature="0"
   style="fill:#ffffff" />
	<path
   class="st1"
   d="m 136.8,79.1 c -2.7,0 -4.3,-1.6 -4.3,-4.2 v -2.3 c 0,-2.6 1.6,-4.2 4.3,-4.2 2.7,0 4.3,1.6 4.3,4.2 v 2 H 135 v 0.3 c 0,1.5 0.7,2.1 1.8,2.1 1.2,0 2.1,-0.3 3,-0.9 l 0.9,1.8 c -0.9,0.6 -2.2,1.2 -3.9,1.2 m 1.8,-6.5 c 0,-1.4 -0.6,-2.1 -1.8,-2.1 -1.2,0 -1.8,0.7 -1.8,2.1 v 0.2 h 3.6 z"
   id="path3820"
   inkscape:connector-curvature="0"
   style="fill:#ffffff" />
	<path
   class="st1"
   d="m 85.6,42.6 v 0.9 c 0,5.2 -3,8.5 -8.4,8.5 h -4.3 v 7.7 H 67.1 V 34.2 h 10 c 5.5,0 8.5,3.3 8.5,8.4 m -5.8,0.5 c 0,-2.6 -1.1,-3.9 -3,-3.9 h -3.9 v 7.7 h 3.9 c 1.9,0 3,-1.3 3,-3.8 z"
   id="path3822"
   inkscape:connector-curvature="0"
   style="fill:#ffffff" />
	<path
   class="st1"
   d="m 108.8,55.4 v 4.4 c -4.7,0.7 -7.1,0.3 -9.2,-4 l -2.5,-5 c -0.5,0 -2,-0.1 -3.1,-0.4 v 9.2 H 88.2 V 34.2 h 10.4 c 5.4,0 8.8,3.3 8.8,7.7 v 1.2 c 0,3.1 -1.6,5.7 -4.5,6.9 l 2.4,4.4 c 0.8,1.5 2.5,1.3 3.5,1 M 94,45.4 c 1.3,0.3 3.3,0.5 4.3,0.5 2.3,0 3.3,-1.4 3.3,-3.2 v -0.3 c 0,-1.8 -1.1,-3.1 -3,-3.1 H 94 Z"
   id="path3824"
   inkscape:connector-curvature="0"
   style="fill:#ffffff" />
	<rect
   x="111.2"
   y="34.200001"
   class="st1"
   width="5.8000002"
   height="21.799999"
   id="rect3826"
   style="fill:#ffffff" />
	<polyline
   class="st1"
   points="134.6,59.7 130.3,50.9 125.8,59.7 119.3,59.7 126.5,46.8 119.4,34.2 126,34.2 130.1,42.6 134.5,34.2    141.1,34.2 133.9,46.5 141.2,59.7 134.6,59.7  "
   id="polyline3828"
   style="fill:#ffffff" />
	<path
   class="st1"
   d="m 117.6,61.5 c 0,1.9 -1.5,3.5 -3.5,3.5 -1.9,0 -3.5,-1.5 -3.5,-3.5 0,-1.9 1.5,-3.5 3.5,-3.5 1.9,0 3.5,1.6 3.5,3.5"
   id="path3830"
   inkscape:connector-curvature="0"
   style="fill:#ffffff" />
</g>
<g
   id="g3834"
   transform="translate(-52.507695,-5.1056446)">
</g>
<g
   id="g3836"
   transform="translate(-52.507695,-5.1056446)">
</g>
<g
   id="g3838"
   transform="translate(-52.507695,-5.1056446)">
</g>
<g
   id="g3840"
   transform="translate(-52.507695,-5.1056446)">
</g>
<g
   id="g3842"
   transform="translate(-52.507695,-5.1056446)">
</g>
<g
   id="g3844"
   transform="translate(-52.507695,-5.1056446)">
</g>
</svg>